<?xml version="1.0" encoding="utf-8"?>
<!-- Generator: Adobe Illustrator 24.3.0, SVG Export Plug-In . SVG Version: 6.00 Build 0)  -->
<svg version="1.1" id="Vrstva_1" xmlns="http://www.w3.org/2000/svg" xmlns:xlink="http://www.w3.org/1999/xlink" x="0px" y="0px"
	 viewBox="0 0 32 32" style="enable-background:new 0 0 32 32;" xml:space="preserve">
<style type="text/css">
	.st0{fill:none;stroke:#FFFFFF;stroke-miterlimit:10;}
	.st1{fill:#FFFFFF;}
</style>
<circle class="st0" cx="15.44" cy="15.25" r="13.96"/>
<path class="st1" d="M12.05,20.03L12.05,20.03c-0.23,0.18-0.57,0.14-0.75-0.09l-3.86-4.96c-0.18-0.23-0.14-0.57,0.09-0.75l0,0
	c0.23-0.18,0.57-0.14,0.75,0.09l3.86,4.96C12.32,19.51,12.28,19.85,12.05,20.03z"/>
<path class="st1" d="M23.26,10.62L23.26,10.62c0.18,0.23,0.14,0.57-0.09,0.75l-11.09,8.64c-0.23,0.18-0.57,0.14-0.75-0.09v0
	c-0.18-0.23-0.14-0.57,0.09-0.75l11.09-8.64C22.74,10.34,23.08,10.38,23.26,10.62z"/>
</svg>
