<?xml version="1.0" standalone="no"?>
<!DOCTYPE svg PUBLIC "-//W3C//DTD SVG 20010904//EN"
 "http://www.w3.org/TR/2001/REC-SVG-20010904/DTD/svg10.dtd">
<svg version="1.0" xmlns="http://www.w3.org/2000/svg"
 width="388.000000pt" height="388.000000pt" viewBox="0 0 388.000000 388.000000"
 preserveAspectRatio="xMidYMid meet">

<g transform="translate(0.000000,388.000000) scale(0.100000,-0.100000)"
fill="#000000" stroke="none">
<path d="M93 3854 c-24 -14 -54 -44 -68 -68 l-25 -43 0 -1803 0 -1803 25 -43
c15 -26 43 -54 69 -69 l43 -25 971 0 972 0 0 750 0 750 -255 0 -255 0 0 290 0
290 255 0 255 0 0 263 c0 220 3 276 19 348 51 228 173 390 369 488 122 62 186
71 503 71 l269 0 0 -249 0 -249 -193 -4 -192 -3 -65 -32 c-117 -58 -130 -98
-130 -405 l0 -228 291 0 292 0 -8 -32 c-3 -18 -23 -148 -44 -288 l-37 -255
-252 -3 -252 -2 0 -750 0 -750 547 0 546 0 43 25 c26 15 54 43 69 69 l25 43 0
1803 0 1803 -25 43 c-15 26 -43 54 -69 69 l-43 25 -1804 0 -1804 0 -42 -26z"/>
</g>
</svg>
