<?xml version="1.0" standalone="no"?>
<!DOCTYPE svg PUBLIC "-//W3C//DTD SVG 20010904//EN"
 "http://www.w3.org/TR/2001/REC-SVG-20010904/DTD/svg10.dtd">
<svg version="1.0" xmlns="http://www.w3.org/2000/svg"
 width="631.000000pt" height="629.000000pt" viewBox="0 0 631.000000 629.000000"
 preserveAspectRatio="xMidYMid meet">

<g transform="translate(0.000000,629.000000) scale(0.100000,-0.100000)"
fill="#000000" stroke="none">
<path d="M1509 6275 c-269 -43 -546 -155 -769 -313 -122 -86 -326 -290 -412
-412 -137 -192 -245 -442 -300 -690 l-23 -105 0 -1610 0 -1610 23 -105 c55
-248 163 -498 300 -690 86 -122 290 -326 412 -412 192 -137 442 -245 690 -300
l105 -23 1620 0 1620 0 105 23 c481 107 875 371 1135 762 124 187 215 405 267
640 l23 105 0 1610 0 1610 -23 105 c-55 248 -163 498 -300 690 -86 122 -290
326 -412 412 -189 135 -436 243 -685 300 l-100 22 -1595 2 c-1296 2 -1611 0
-1681 -11z m3236 -558 c514 -105 896 -490 993 -1002 16 -82 17 -216 17 -1570
0 -1627 3 -1549 -61 -1740 -59 -181 -153 -334 -292 -476 -182 -188 -404 -307
-667 -357 -82 -16 -217 -17 -1580 -17 -1363 0 -1498 1 -1580 17 -263 50 -485
169 -667 357 -139 142 -233 295 -292 476 -64 191 -61 113 -61 1740 0 1354 1
1488 17 1570 48 251 156 461 332 643 210 217 473 344 767 371 52 5 747 8 1544
7 1298 -2 1458 -4 1530 -19z"/>
<path d="M4729 5186 c-114 -44 -202 -125 -238 -221 -28 -75 -28 -185 0 -260
29 -78 111 -164 191 -201 57 -26 73 -29 173 -29 100 0 116 3 173 29 43 20 80
47 116 87 69 74 96 143 96 244 0 101 -27 170 -96 244 -79 85 -149 115 -279
118 -65 2 -112 -2 -136 -11z"/>
<path d="M2866 4719 c-504 -88 -938 -415 -1172 -881 -185 -369 -218 -841 -85
-1238 140 -417 427 -747 823 -946 369 -185 841 -218 1238 -85 571 191 989 677
1090 1265 28 162 28 400 0 562 -115 673 -651 1209 -1324 1324 -158 27 -414 27
-570 -1z m376 -539 c182 -18 357 -79 505 -177 76 -50 203 -171 265 -253 66
-86 152 -264 179 -370 41 -163 41 -368 -1 -530 -24 -95 -89 -240 -147 -327
-47 -72 -169 -201 -246 -260 -274 -211 -660 -273 -991 -157 -90 31 -222 102
-293 157 -77 59 -199 188 -246 260 -167 252 -221 565 -147 858 26 104 112 283
178 369 62 82 189 203 265 253 142 95 326 160 492 176 44 5 82 9 85 9 3 1 49
-3 102 -8z"/>
</g>
</svg>
