<?xml version="1.0" encoding="utf-8"?>
<!-- Generator: Adobe Illustrator 26.0.1, SVG Export Plug-In . SVG Version: 6.00 Build 0)  -->
<svg version="1.1" id="Layer_1" xmlns="http://www.w3.org/2000/svg" xmlns:xlink="http://www.w3.org/1999/xlink" x="0px" y="0px"
	 viewBox="0 0 30.5 12" style="enable-background:new 0 0 30.5 12;" xml:space="preserve">
<style type="text/css">
	.st0{fill:none;stroke:#FFFFFF;stroke-width:1.5;stroke-miterlimit:10;}
	.st1{fill:#FFFFFF;}
</style>
<circle class="st0" cx="6.4" cy="6" r="5.2"/>
<path class="st1" d="M29.5,7H11.5c-0.4,0-0.8-0.3-0.8-0.8V5.7c0-0.4,0.3-0.8,0.8-0.8h17.9c0.4,0,0.8,0.3,0.8,0.8v0.5
	C30.2,6.7,29.9,7,29.5,7z"/>
<path class="st1" d="M18.4,11V5.7c0-0.4,0.3-0.8,0.8-0.8h0.5c0.4,0,0.8,0.3,0.8,0.8V11c0,0.4-0.3,0.8-0.8,0.8h-0.5
	C18.8,11.8,18.4,11.5,18.4,11z"/>
<path class="st1" d="M22.9,9.8v-4c0-0.4,0.3-0.8,0.8-0.8h0.5c0.4,0,0.8,0.3,0.8,0.8v4c0,0.4-0.3,0.8-0.8,0.8h-0.5
	C23.2,10.5,22.9,10.2,22.9,9.8z"/>
</svg>
