<?xml version="1.0" standalone="no"?>
<!DOCTYPE svg PUBLIC "-//W3C//DTD SVG 20010904//EN"
 "http://www.w3.org/TR/2001/REC-SVG-20010904/DTD/svg10.dtd">
<svg version="1.0" xmlns="http://www.w3.org/2000/svg"
 width="1024.000000pt" height="721.000000pt" viewBox="0 0 1024.000000 721.000000"
 preserveAspectRatio="xMidYMid meet">

<g transform="translate(0.000000,721.000000) scale(0.100000,-0.100000)"
fill="#000000" stroke="none">
<path d="M9629 7170 c-1640 -252 -2922 -701 -4190 -1468 -514 -310 -921 -607
-1804 -1312 -616 -492 -840 -663 -1055 -807 -743 -496 -1437 -762 -2420 -928
-85 -14 -156 -28 -158 -30 -2 -2 0 -23 5 -47 10 -48 8 -47 118 -37 l49 4 9
-43 c5 -24 7 -46 5 -48 -2 -2 -35 -8 -73 -13 -37 -6 -72 -14 -77 -19 -9 -9 7
-111 21 -125 5 -5 86 5 182 22 95 17 175 28 178 26 2 -3 26 -103 52 -223 27
-119 123 -554 213 -966 91 -412 165 -751 163 -752 -1 -1 -103 -21 -227 -43
-124 -23 -235 -44 -247 -46 -19 -5 -23 -12 -23 -46 0 -50 13 -56 94 -41 70 13
83 7 88 -48 3 -34 2 -35 -42 -43 -25 -5 -62 -13 -82 -18 l-38 -10 7 -47 c3
-26 8 -50 12 -54 3 -4 96 8 206 27 1298 221 2412 666 3525 1408 384 256 636
446 1455 1096 719 572 1008 783 1375 1003 852 511 1788 816 3060 999 124 17
226 33 228 34 3 2 -37 305 -43 325 -4 11 -16 14 -49 12 -44 -4 -45 -3 -50 30
-10 55 -237 1816 -243 1883 l-6 62 50 7 c55 7 52 0 38 89 -5 30 -10 37 -29 37
-18 0 -25 7 -30 31 -10 50 -7 59 19 69 25 10 27 21 9 78 -4 15 16 17 -275 -28z
m135 -78 c3 -5 8 -27 12 -49 l6 -41 -48 -10 c-27 -6 -70 -13 -96 -17 -50 -8
-49 -9 -63 61 l-6 30 88 16 c48 8 91 16 95 17 4 0 9 -3 12 -7z m-290 -64 c13
-43 14 -77 2 -81 -7 -3 -47 -11 -89 -18 -87 -15 -95 -11 -103 43 l-6 35 68 15
c86 20 124 21 128 6z m-290 -70 c12 -45 7 -67 -16 -73 -116 -27 -161 -35 -164
-32 -2 2 -7 24 -10 49 l-6 46 63 15 c97 22 125 21 133 -5z m-294 -64 c19 -50
13 -62 -39 -78 -28 -8 -70 -18 -94 -21 l-43 -7 -13 42 c-7 23 -10 44 -7 47 6
7 143 40 169 42 10 1 22 -10 27 -25z m-294 -59 c3 -8 7 -29 8 -46 l1 -32 -88
-23 -88 -22 -10 24 c-26 71 -27 70 58 92 97 25 112 26 119 7z m783 -77 c23
-113 291 -1862 291 -1897 0 -22 7 -20 -235 -66 -325 -62 -807 -182 -1117 -279
l-76 -24 -57 202 c-31 110 -151 534 -266 941 -115 407 -207 744 -205 751 8 21
467 157 844 251 185 46 757 169 799 172 6 1 16 -23 22 -51z m-1068 -18 c9 -29
9 -44 2 -51 -6 -6 -47 -21 -91 -34 l-81 -22 -9 26 c-20 52 -21 60 -9 68 10 6
150 49 169 52 4 1 13 -17 19 -39z m-281 -93 c7 -21 10 -40 8 -42 -13 -12 -182
-55 -189 -48 -5 5 -10 27 -12 48 l-2 39 85 27 c47 14 88 24 91 20 4 -3 12 -23
19 -44z m-294 -73 c8 -20 13 -42 11 -49 -6 -14 -164 -68 -177 -60 -13 8 -33
75 -25 83 6 7 152 60 168 61 4 1 15 -15 23 -35z m-280 -99 c7 -19 14 -39 14
-44 0 -7 -157 -71 -176 -71 -6 0 -34 65 -34 79 0 10 144 70 168 71 7 0 20 -16
28 -35z m-280 -111 c8 -18 14 -35 14 -38 0 -8 -148 -66 -169 -66 -15 0 -23 10
-32 40 -7 22 -10 42 -8 44 13 11 165 63 172 59 5 -3 15 -20 23 -39z m-275
-111 l18 -41 -91 -37 c-50 -20 -92 -34 -94 -32 -2 1 -10 20 -19 40 l-15 37 82
40 c45 22 87 39 92 37 5 -2 17 -22 27 -44z m519 -758 c358 -1019 401 -1148
393 -1156 -4 -3 -89 -41 -188 -84 -230 -98 -540 -255 -770 -389 -176 -103
-180 -105 -196 -85 -18 24 -221 384 -646 1147 -244 438 -301 548 -291 558 25
23 395 226 618 338 321 163 817 382 832 368 3 -4 115 -317 248 -697z m-796
645 c9 -22 16 -42 16 -44 0 -4 -165 -76 -174 -76 -8 0 -36 57 -36 73 0 13 142
87 166 87 7 0 19 -18 28 -40z m-274 -120 c11 -21 20 -42 20 -44 0 -7 -156 -86
-169 -86 -9 0 -41 60 -41 77 0 6 146 87 167 92 2 1 12 -17 23 -39z m-270 -132
c11 -18 20 -38 20 -44 0 -9 -147 -94 -163 -94 -4 0 -16 18 -27 39 -15 30 -17
41 -7 49 18 15 141 82 150 82 4 0 16 -15 27 -32z m-260 -148 l20 -40 -52 -33
c-70 -44 -94 -57 -110 -57 -14 0 -48 49 -48 68 0 9 146 100 162 102 4 0 17
-18 28 -40z m-244 -173 c7 -21 -6 -33 -89 -77 -32 -18 -64 -29 -72 -26 -13 5
-50 65 -43 71 2 1 39 23 83 49 l80 46 17 -22 c10 -13 20 -31 24 -41z m-268
-136 l22 -39 -68 -46 c-38 -25 -76 -48 -84 -51 -20 -8 -66 61 -51 76 19 19
138 98 149 98 6 1 20 -17 32 -38z m-250 -161 c12 -16 22 -33 22 -38 0 -9 -145
-112 -157 -112 -7 0 -53 64 -53 74 0 8 143 106 155 106 6 0 21 -13 33 -30z
m211 -128 c42 -63 698 -1103 866 -1371 l160 -254 -40 -34 c-22 -18 -132 -102
-245 -186 -177 -132 -349 -265 -767 -596 -51 -40 -97 -70 -103 -66 -19 12
-1240 1523 -1240 1535 0 14 436 360 765 606 207 155 560 404 574 404 3 0 17
-17 30 -38z m-454 -48 c15 -19 25 -37 24 -38 -33 -27 -149 -106 -156 -106 -11
0 -53 55 -53 69 0 10 137 111 150 111 4 0 20 -16 35 -36z m-239 -180 l24 -31
-80 -62 -79 -61 -27 40 c-17 26 -24 44 -18 50 30 30 131 99 143 97 7 -1 24
-16 37 -33z m5543 -201 c1 -36 3 -36 -113 -53 -38 -6 -71 -9 -73 -6 -3 3 -8
25 -10 49 l-5 45 93 14 c105 16 107 15 108 -49z m-5781 24 l23 -32 -38 -34
c-21 -18 -55 -45 -76 -59 l-38 -25 -31 30 c-17 17 -27 36 -24 42 11 17 138
111 150 111 6 0 21 -15 34 -33z m5482 -48 c6 -23 8 -45 3 -50 -11 -11 -177
-39 -184 -31 -4 4 -10 26 -14 48 l-6 42 73 12 c40 6 78 13 83 15 26 9 35 2 45
-36z m-300 -16 c1 -5 5 -27 9 -50 5 -24 7 -43 6 -43 -2 0 -39 -7 -82 -15 -111
-21 -110 -22 -121 28 -5 23 -7 44 -6 46 3 4 158 38 182 40 6 1 12 -2 12 -6z
m-286 -94 c11 -56 10 -57 -71 -74 -43 -9 -86 -19 -95 -21 -14 -4 -19 3 -24 35
-4 22 -7 44 -8 48 -1 11 111 41 155 42 33 1 37 -2 43 -30z m-5114 -55 c0 -7
-33 -39 -72 -73 l-73 -60 -27 32 c-15 18 -27 37 -28 43 0 6 32 36 72 68 l71
56 29 -27 c15 -15 28 -32 28 -39z m4822 -13 c5 -18 7 -39 4 -46 -3 -9 -153
-55 -179 -55 -6 0 -29 91 -25 95 8 6 165 43 177 42 8 -1 19 -17 23 -36z m-291
-68 c20 -53 10 -64 -76 -89 -44 -13 -85 -22 -90 -20 -18 6 -35 74 -21 85 14
11 134 50 159 50 10 1 22 -10 28 -26z m-4786 -74 c14 -17 25 -35 23 -39 -3 -8
-114 -101 -135 -114 -15 -8 -62 41 -62 64 0 14 125 120 141 120 3 0 18 -14 33
-31z m4503 -29 c6 -23 6 -42 1 -46 -15 -9 -152 -54 -165 -54 -13 0 -40 77 -30
87 11 11 133 52 157 52 23 1 28 -5 37 -39z m-292 -74 c29 -45 16 -67 -60 -98
-38 -15 -77 -28 -86 -28 -19 0 -54 69 -42 82 7 7 152 67 164 67 4 1 15 -10 24
-23z m-4447 -82 c12 -15 21 -32 21 -39 0 -10 -99 -96 -137 -118 -8 -5 -22 7
-39 33 l-27 40 29 23 c129 102 123 99 153 61z m4176 -40 c8 -20 15 -40 15 -44
0 -10 -143 -70 -167 -70 -21 0 -51 66 -37 80 12 11 146 68 161 69 7 1 20 -15
28 -35z m-275 -125 c12 -23 20 -42 18 -44 -6 -7 -161 -75 -169 -75 -5 0 -18
18 -29 40 l-21 40 83 40 c45 22 85 40 90 40 4 0 17 -18 28 -41z m-4136 -20
c14 -17 26 -34 26 -39 0 -4 -33 -33 -72 -63 l-73 -56 -33 31 c-18 18 -31 35
-30 39 4 9 141 118 150 119 3 0 18 -14 32 -31z m3870 -110 c9 -23 16 -43 14
-44 -2 -2 -40 -21 -86 -44 l-82 -41 -20 32 c-11 18 -20 39 -20 45 0 12 143 91
166 93 7 0 19 -19 28 -41z m-3441 -436 c257 -345 627 -845 820 -1106 49 -67
49 -68 31 -89 -24 -26 -395 -304 -569 -425 -244 -170 -618 -408 -698 -444 -17
-8 -31 -9 -36 -3 -16 17 -975 1637 -986 1666 -5 12 19 31 97 79 245 150 559
370 873 613 83 64 153 116 157 116 3 0 143 -183 311 -407z m-643 327 c0 -10
-137 -120 -150 -120 -14 0 -52 69 -45 81 4 6 37 33 74 60 l66 49 28 -30 c15
-17 27 -34 27 -40z m3840 -71 c0 -6 -138 -86 -158 -91 -7 -2 -24 15 -37 37
l-24 40 87 47 87 47 22 -37 c13 -20 23 -39 23 -43z m-4101 -73 c12 -18 21 -36
21 -39 0 -4 -35 -30 -77 -58 l-77 -52 -28 34 c-15 18 -28 36 -28 39 1 8 144
109 157 110 6 0 21 -15 32 -34z m3821 -36 c11 -21 20 -41 20 -43 0 -4 -43 -33
-132 -91 l-27 -17 -27 40 c-15 23 -24 44 -21 47 6 6 160 103 164 104 2 0 12
-18 23 -40z m-4071 -129 c12 -16 21 -33 21 -39 0 -8 -29 -29 -132 -96 l-27
-18 -26 42 c-15 23 -25 43 -23 45 19 16 146 94 155 95 6 0 21 -13 32 -29z
m3829 -90 c-13 -10 -50 -36 -83 -58 l-61 -41 -24 35 c-30 43 -25 52 60 111
l65 44 33 -37 33 -36 -23 -18z m-4078 -73 c11 -18 20 -35 20 -39 0 -3 -36 -27
-80 -53 -63 -39 -83 -46 -94 -37 -15 13 -41 69 -35 75 13 13 146 86 157 86 7
0 21 -15 32 -32z m3835 -59 c14 -27 14 -27 -62 -84 l-76 -58 -28 34 c-16 19
-27 39 -26 44 2 6 36 34 76 63 80 57 88 57 116 1z m-4092 -94 c9 -20 17 -38
17 -40 0 -6 -157 -85 -170 -85 -10 0 -54 79 -48 86 10 10 155 73 169 74 8 0
23 -16 32 -35z m3841 -68 c15 -19 26 -37 26 -40 0 -4 -34 -32 -76 -64 l-76
-57 -24 29 c-13 17 -24 35 -24 42 0 12 128 122 142 123 4 0 18 -15 32 -33z
m-4111 -62 c9 -20 17 -38 17 -40 0 -6 -127 -70 -157 -79 -19 -6 -25 -1 -38 30
-8 20 -15 41 -15 46 0 10 137 76 161 77 8 1 23 -15 32 -34z m-278 -115 c8 -16
15 -35 15 -43 0 -13 -138 -77 -166 -77 -13 0 -34 43 -34 68 0 12 22 28 73 49
39 18 78 32 84 33 7 0 19 -13 28 -30z m4161 -16 l24 -31 -75 -62 c-81 -67 -85
-68 -118 -13 l-17 30 67 56 c38 31 74 55 82 54 7 -2 24 -17 37 -34z m-3611
-294 c362 -726 725 -1475 721 -1487 -6 -14 -70 -46 -316 -155 -302 -135 -657
-266 -1015 -374 -99 -30 -187 -57 -197 -60 -12 -3 -20 6 -32 38 -24 64 -536
1862 -531 1866 2 2 95 30 207 62 322 93 611 199 893 328 72 32 131 59 132 58
0 -1 63 -125 138 -276z m-823 195 c10 -27 13 -47 7 -50 -5 -4 -48 -19 -95 -35
l-85 -29 -9 25 c-28 72 -29 69 67 102 48 17 90 31 93 31 3 1 13 -19 22 -44z
m4194 -80 l27 -36 -33 -34 c-17 -18 -51 -47 -75 -64 l-43 -31 -30 37 -30 37
77 63 c42 34 77 63 78 63 1 0 14 -16 29 -35z m-4480 -10 c8 -20 12 -40 9 -45
-8 -12 -130 -50 -161 -50 -17 0 -27 8 -34 26 -20 52 -15 60 63 82 100 28 106
28 123 -13z m-288 -77 c15 -56 11 -58 -122 -88 -27 -6 -53 -7 -58 -2 -4 4 -9
26 -11 47 l-2 39 60 17 c33 10 74 18 92 18 28 1 34 -3 41 -31z m-298 -47 c5
-11 10 -33 10 -49 0 -28 -1 -29 -87 -45 -100 -18 -113 -12 -113 49 0 31 1 32
73 47 97 20 105 20 117 -2z m4860 -92 c0 -8 -80 -80 -122 -110 l-26 -19 -30
38 -30 38 76 63 77 63 27 -33 c16 -18 28 -36 28 -40z m-230 -191 c0 -4 -32
-34 -72 -67 -77 -65 -79 -66 -118 -10 l-20 27 77 62 77 61 28 -33 c15 -18 28
-36 28 -40z m-257 -152 c15 -19 27 -37 27 -39 0 -3 -35 -31 -77 -62 l-77 -58
-28 34 c-15 18 -27 37 -26 41 3 8 140 117 148 118 3 0 17 -16 33 -34z m-213
-218 c0 -8 -84 -77 -129 -106 -23 -15 -25 -15 -47 13 -13 17 -24 35 -24 42 0
6 33 37 72 68 l73 57 27 -33 c16 -18 28 -37 28 -41z m-265 -143 c15 -19 24
-39 20 -45 -3 -6 -40 -33 -80 -60 l-74 -50 -19 28 c-10 15 -22 32 -26 39 -4 7
21 33 66 67 40 31 76 56 80 56 4 0 19 -16 33 -35z m-245 -170 c27 -43 24 -47
-66 -105 -70 -46 -80 -45 -109 11 -14 27 -14 27 63 78 42 28 80 51 84 51 3 0
16 -16 28 -35z m-230 -200 c0 -10 -147 -105 -163 -105 -3 0 -16 18 -27 40
l-20 40 57 36 c32 20 67 42 78 50 18 12 23 10 48 -19 15 -17 27 -36 27 -42z
m-273 -124 l22 -38 -83 -47 c-45 -25 -86 -46 -89 -46 -11 0 -50 84 -41 88 5 2
38 21 74 42 36 21 72 39 80 39 8 0 25 -16 37 -38z m-268 -135 c12 -18 21 -37
21 -42 0 -10 -168 -99 -174 -93 -9 10 -36 69 -36 78 0 9 143 89 162 91 3 0 16
-15 27 -34z m-263 -141 c7 -19 14 -37 14 -40 0 -6 -125 -69 -156 -79 -18 -6
-24 0 -38 34 -9 22 -16 43 -16 46 0 8 143 73 163 73 11 1 23 -12 33 -34z
m-272 -126 c9 -23 15 -43 14 -45 -12 -11 -172 -73 -179 -69 -12 8 -30 78 -21
87 10 10 144 67 158 68 7 0 19 -19 28 -41z m-279 -110 c9 -17 14 -36 12 -43
-7 -16 -163 -80 -176 -72 -8 6 -25 56 -26 80 0 10 131 65 157 65 10 1 25 -13
33 -30z m-279 -105 c8 -20 14 -40 12 -46 -4 -10 -151 -68 -173 -68 -13 0 -40
78 -31 87 6 6 156 62 169 62 4 1 15 -15 23 -35z m-280 -106 c10 -28 10 -39 1
-46 -12 -10 -146 -52 -165 -52 -10 0 -32 51 -32 76 0 14 134 64 164 61 12 -1
24 -15 32 -39z m-290 -73 c7 -19 14 -41 14 -48 0 -9 -34 -24 -90 -42 -50 -15
-93 -26 -94 -24 -10 10 -25 84 -18 90 5 5 119 44 170 58 2 1 10 -15 18 -34z
m-292 -63 c2 -4 7 -24 11 -44 l7 -37 -54 -16 c-29 -9 -71 -18 -94 -21 -40 -6
-40 -6 -53 36 -7 23 -11 43 -9 45 5 5 151 43 170 44 9 1 19 -2 22 -7z m-283
-102 c8 -25 9 -44 3 -50 -11 -11 -166 -49 -176 -43 -12 6 -28 77 -20 85 6 6
148 45 174 47 4 1 13 -17 19 -39z m-295 -45 c3 -8 7 -29 8 -46 1 -30 -2 -33
-44 -44 -25 -6 -66 -15 -92 -18 l-47 -7 -11 41 c-6 23 -8 44 -5 48 8 8 132 38
163 40 12 0 25 -6 28 -14z"/>
</g>
</svg>
