<?xml version="1.0" encoding="utf-8"?>
<!-- Generator: Adobe Illustrator 24.3.0, SVG Export Plug-In . SVG Version: 6.00 Build 0)  -->
<svg version="1.1" id="Vrstva_1" xmlns="http://www.w3.org/2000/svg" xmlns:xlink="http://www.w3.org/1999/xlink" x="0px" y="0px"
	 viewBox="0 0 27.47 18.57" style="enable-background:new 0 0 27.47 18.57;" xml:space="preserve">
<style type="text/css">
	.st0{fill:#FFFFFF;}
</style>
<path class="st0" d="M24.44,10.51H5.14c-0.03,0-0.05-0.02-0.05-0.05l0-1.87c0-0.03,0.02-0.05,0.05-0.05h19.3
	c0.03,0,0.05,0.02,0.05,0.05v1.87C24.49,10.48,24.47,10.51,24.44,10.51z"/>
<path class="st0" d="M26.34,10.6l-10.08,7.15c-0.44,0.31-1.06,0.21-1.37-0.23l0,0c-0.31-0.44-0.21-1.06,0.23-1.37L25.2,9
	c0.44-0.31,1.06-0.21,1.37,0.23l0,0C26.89,9.67,26.79,10.29,26.34,10.6z"/>
<path class="st0" d="M25.17,10.47l-9.13-8.32c-0.4-0.37-0.43-0.99-0.06-1.39l0,0c0.37-0.4,0.99-0.43,1.39-0.06l9.13,8.32
	c0.4,0.37,0.43,0.99,0.06,1.39l0,0C26.2,10.81,25.57,10.83,25.17,10.47z"/>
</svg>
