<?xml version="1.0" encoding="utf-8"?>
<!-- Generator: Adobe Illustrator 24.3.0, SVG Export Plug-In . SVG Version: 6.00 Build 0)  -->
<svg version="1.1" id="Vrstva_1" xmlns="http://www.w3.org/2000/svg" xmlns:xlink="http://www.w3.org/1999/xlink" x="0px" y="0px"
	 viewBox="0 0 22.8 32" style="enable-background:new 0 0 22.8 32;" xml:space="preserve">
<style type="text/css">
	.st0{fill:#FFFFFF;}
</style>
<path class="st0" d="M1.7,17.3l-0.6-0.8c-0.3-0.5-0.3-1.1,0.2-1.4L20.5,0.7c0.5-0.3,1.1-0.2,1.4,0.2l0.2,0.3
	c0.3,0.5,0.2,1.1-0.2,1.4L2.2,17.4C2,17.5,1.8,17.5,1.7,17.3z"/>
<path class="st0" d="M1.7,14.8l-0.6,0.8c-0.3,0.5-0.3,1.1,0.2,1.4l19.2,14.3c0.5,0.3,1.1,0.2,1.4-0.2l0.2-0.3
	c0.3-0.5,0.2-1.1-0.2-1.4L2.2,14.7C2,14.6,1.8,14.7,1.7,14.8z"/>
</svg>
