<?xml version="1.0" encoding="utf-8"?>
<!-- Generator: Adobe Illustrator 24.3.0, SVG Export Plug-In . SVG Version: 6.00 Build 0)  -->
<svg version="1.1" id="Vrstva_1" xmlns="http://www.w3.org/2000/svg" xmlns:xlink="http://www.w3.org/1999/xlink" x="0px" y="0px"
	 viewBox="0 0 22.2 32" style="enable-background:new 0 0 22.2 32;" xml:space="preserve">
<style type="text/css">
	.st0{fill:#FFFFFF;}
</style>
<path class="st0" d="M20.5,17.4L0.8,2.7c-0.5-0.3-0.5-1-0.2-1.4l0.2-0.3c0.3-0.5,1-0.5,1.4-0.2l19.2,14.3c0.5,0.3,0.6,1,0.2,1.4
	L21,17.3C20.9,17.5,20.7,17.5,20.5,17.4z"/>
<path class="st0" d="M20.5,14.7L0.8,29.5c-0.5,0.3-0.5,1-0.2,1.4l0.2,0.3c0.3,0.5,1,0.5,1.4,0.2l19.2-14.3c0.5-0.3,0.6-1,0.2-1.4
	L21,14.8C20.9,14.7,20.7,14.6,20.5,14.7z"/>
</svg>
