<?xml version="1.0" encoding="utf-8"?>
<!-- Generator: Adobe Illustrator 24.3.0, SVG Export Plug-In . SVG Version: 6.00 Build 0)  -->
<svg version="1.1" id="Vrstva_1" xmlns="http://www.w3.org/2000/svg" xmlns:xlink="http://www.w3.org/1999/xlink" x="0px" y="0px"
	 viewBox="0 0 23.26 3.78" style="enable-background:new 0 0 23.26 3.78;" xml:space="preserve">
<style type="text/css">
	.st0{fill:#F39200;}
</style>
<polygon class="st0" points="1.99,0 2.6,1.24 3.97,1.44 2.98,2.41 3.22,3.78 1.99,3.13 0.76,3.78 0.99,2.41 0,1.44 1.37,1.24 "/>
<polygon class="st0" points="6.66,0 7.28,1.24 8.65,1.44 7.66,2.41 7.89,3.78 6.66,3.13 5.44,3.78 5.67,2.41 4.68,1.44 6.05,1.24 
	"/>
<polygon class="st0" points="11.53,0 12.15,1.24 13.52,1.44 12.53,2.41 12.76,3.78 11.53,3.13 10.31,3.78 10.54,2.41 9.55,1.44 
	10.92,1.24 "/>
<polygon class="st0" points="16.4,0 17.02,1.24 18.39,1.44 17.4,2.41 17.63,3.78 16.4,3.13 15.18,3.78 15.41,2.41 14.42,1.44 
	15.79,1.24 "/>
<polygon class="st0" points="21.28,0 21.89,1.24 23.26,1.44 22.27,2.41 22.5,3.78 21.28,3.13 20.05,3.78 20.28,2.41 19.29,1.44 
	20.66,1.24 "/>
</svg>
