<?xml version="1.0" standalone="no"?>
<!DOCTYPE svg PUBLIC "-//W3C//DTD SVG 20010904//EN"
 "http://www.w3.org/TR/2001/REC-SVG-20010904/DTD/svg10.dtd">
<svg version="1.0" xmlns="http://www.w3.org/2000/svg"
 width="2048.000000pt" height="2048.000000pt" viewBox="0 0 2048.000000 2048.000000"
 preserveAspectRatio="xMidYMid meet">

<g transform="translate(0.000000,2048.000000) scale(0.100000,-0.100000)"
fill="#000000" stroke="none">
<path d="M11823 20470 c-617 -3 -1125 -9 -1130 -13 -4 -5 -11 -3020 -14 -6700
-7 -6503 -9 -6927 -39 -7662 -20 -493 -29 -617 -55 -722 -39 -163 -119 -341
-273 -610 -439 -767 -1228 -1308 -2084 -1428 -156 -22 -497 -38 -643 -31 -577
28 -1120 243 -1615 640 -107 85 -353 334 -442 446 -297 374 -492 781 -583
1216 -21 100 -27 166 -36 414 -20 558 9 805 133 1135 168 446 378 776 692
1091 344 344 779 608 1206 732 526 152 1091 159 1630 20 85 -22 165 -42 176
-45 l22 -5 6 419 c3 230 11 726 18 1103 6 377 11 1040 12 1475 l1 790 -136 22
c-575 92 -1217 97 -1804 13 -1783 -257 -3405 -1264 -4417 -2745 -516 -754
-873 -1634 -1027 -2525 -65 -380 -66 -390 -65 -1030 0 -380 4 -632 13 -720
185 -2027 1429 -3922 3243 -4938 734 -411 1553 -679 2368 -772 604 -69 1389
-39 1990 76 1424 273 2746 1051 3677 2163 487 582 887 1281 1140 1991 171 479
286 997 349 1560 26 231 32 1139 33 4593 1 1731 4 3147 7 3147 3 0 97 -58 208
-128 110 -71 253 -160 316 -199 1188 -722 2434 -1123 3890 -1253 159 -14 423
-30 492 -30 l58 0 -2 1717 -3 1717 -145 18 c-1183 148 -2242 539 -3001 1109
-253 189 -598 516 -785 742 -594 722 -978 1635 -1123 2677 -18 131 -51 461
-51 518 l0 22 -542 -2 c-299 -1 -1048 -5 -1665 -8z"/>
</g>
</svg>
