<?xml version="1.0" encoding="utf-8"?>
<!-- Generator: Adobe Illustrator 24.3.0, SVG Export Plug-In . SVG Version: 6.00 Build 0)  -->
<svg version="1.1" id="Vrstva_1" xmlns="http://www.w3.org/2000/svg" xmlns:xlink="http://www.w3.org/1999/xlink" x="0px" y="0px"
	 viewBox="0 0 196 164.2" style="enable-background:new 0 0 196 164.2;" xml:space="preserve">
<g transform="translate(0.000000,256.000000) scale(0.100000,-0.100000)">
	<path d="M1271.9,2477.2c-121-31-234-127-276-235c-16-41-22-80-23-139c-1-46-3-83-4-83c-2,0-48,9-101,20c-251,51-426,139-588,293
		c-45,43-87,76-93,72c-19-11-41-78-47-140c-10-110,42-251,119-321c32-28,35-34,18-34c-11,0-46,9-77,20c-32,11-59,20-62,20
		c-13,0,13-112,38-166c37-80,105-148,184-184l62-29l-72-1c-43,0-73-4-73-10s11-32,24-58c45-89,147-163,269-193c44-11,47-13,32-29
		c-62-69-359-151-489-135c-48,6-50,5-31-10c57-46,209-108,336-136c421-92,868,58,1097,369c127,173,212,437,212,664v67l50,42
		c49,41,137,146,129,153c-2,3-40-6-84-19s-81-22-82-21c-2,1,17,23,41,49c45,48,95,132,85,142c-3,3-37-8-75-24s-88-35-110-41
		c-40-12-44-11-80,18C1508.9,2472.2,1375.9,2503.2,1271.9,2477.2z"/>
</g>
</svg>
